<svg width="100" height="100" viewBox="0 0 100 100" fill="none" xmlns="http://www.w3.org/2000/svg">
<rect width="100" height="100" rx="50" fill="white"/>
<path d="M57.246 34.306C57.246 32.878 56.634 31.654 55.41 30.634C54.254 29.614 52.86 29.104 51.228 29.104C47.964 29.104 45.278 30.974 43.17 34.714C41.062 38.386 40.008 42.568 40.008 47.26C40.008 50.864 40.688 54.128 42.048 57.052C43.408 59.908 45.38 62.186 47.964 63.886C50.548 65.586 53.54 66.436 56.94 66.436C59.456 66.436 61.87 65.96 64.182 65.008C66.494 63.988 68.364 62.9 69.792 61.744C71.22 60.52 72.682 59.432 74.178 58.48C75.742 57.46 77.102 56.95 78.258 56.95C79.754 56.95 81.046 57.562 82.134 58.786C83.222 59.942 83.766 61.166 83.766 62.458C83.766 63.886 83.324 65.552 82.44 67.456C81.624 69.36 80.298 71.4 78.462 73.576C76.626 75.684 74.484 77.656 72.036 79.492C69.588 81.26 66.528 82.756 62.856 83.98C59.252 85.136 55.444 85.714 51.432 85.714C46.128 85.714 41.198 84.932 36.642 83.368C32.154 81.736 28.244 79.458 24.912 76.534C21.58 73.542 18.962 69.802 17.058 65.314C15.154 60.826 14.202 55.794 14.202 50.218C14.202 39.202 17.5 30.498 24.096 24.106C30.692 17.714 39.328 14.518 50.004 14.518C55.444 14.518 60.476 15.436 65.1 17.272C69.724 19.108 73.396 21.658 76.116 24.922C78.836 28.186 80.196 31.756 80.196 35.632C80.196 40.12 78.7 44.2 75.708 47.872C72.716 51.476 68.84 53.278 64.08 53.278C61.36 53.278 58.912 52.53 56.736 51.034C54.56 49.538 53.472 47.396 53.472 44.608C53.472 43.316 54.084 41.514 55.308 39.202C56.6 36.89 57.246 35.258 57.246 34.306Z" fill="url(#paint0_linear_1224_5936)"/>
<defs>
<linearGradient id="paint0_linear_1224_5936" x1="101.203" y1="66.0001" x2="37.4517" y2="7.16067" gradientUnits="userSpaceOnUse">
<stop stop-color="#0098FF"/>
<stop offset="0.911458" stop-color="#004B7D"/>
</linearGradient>
</defs>
</svg>
