<svg width="345" height="72" viewBox="0 0 345 72" fill="none" xmlns="http://www.w3.org/2000/svg">
<g clip-path="url(#clip0_1234_5453)">
<path d="M48.246 20.306C48.246 18.878 47.634 17.654 46.41 16.634C45.254 15.614 43.86 15.104 42.228 15.104C38.964 15.104 36.278 16.974 34.17 20.714C32.062 24.386 31.008 28.568 31.008 33.26C31.008 36.864 31.688 40.128 33.048 43.052C34.408 45.908 36.38 48.186 38.964 49.886C41.548 51.586 44.54 52.436 47.94 52.436C50.456 52.436 52.87 51.96 55.182 51.008C57.494 49.988 59.364 48.9 60.792 47.744C62.22 46.52 63.682 45.432 65.178 44.48C66.742 43.46 68.102 42.95 69.258 42.95C70.754 42.95 72.046 43.562 73.134 44.786C74.222 45.942 74.766 47.166 74.766 48.458C74.766 49.886 74.324 51.552 73.44 53.456C72.624 55.36 71.298 57.4 69.462 59.576C67.626 61.684 65.484 63.656 63.036 65.492C60.588 67.26 57.528 68.756 53.856 69.98C50.252 71.136 46.444 71.714 42.432 71.714C37.128 71.714 32.198 70.932 27.642 69.368C23.154 67.736 19.244 65.458 15.912 62.534C12.58 59.542 9.962 55.802 8.058 51.314C6.154 46.826 5.202 41.794 5.202 36.218C5.202 25.202 8.5 16.498 15.096 10.106C21.692 3.714 30.328 0.517995 41.004 0.517995C46.444 0.517995 51.476 1.436 56.1 3.272C60.724 5.108 64.396 7.658 67.116 10.922C69.836 14.186 71.196 17.756 71.196 21.632C71.196 26.12 69.7 30.2 66.708 33.872C63.716 37.476 59.84 39.278 55.08 39.278C52.36 39.278 49.912 38.53 47.736 37.034C45.56 35.538 44.472 33.396 44.472 30.608C44.472 29.316 45.084 27.514 46.308 25.202C47.6 22.89 48.246 21.258 48.246 20.306ZM116.529 46.826C116.529 43.29 116.087 40.196 115.203 37.544C114.319 34.824 113.027 33.464 111.327 33.464C110.171 33.464 109.151 34.144 108.267 35.504C107.383 36.864 106.737 38.53 106.329 40.502C105.921 42.474 105.717 44.582 105.717 46.826C105.717 50.294 106.193 53.354 107.145 56.006C108.097 58.59 109.457 59.882 111.225 59.882C112.993 59.882 114.319 58.59 115.203 56.006C116.087 53.422 116.529 50.362 116.529 46.826ZM111.225 71.714C105.921 71.714 101.127 70.762 96.8426 68.858C92.6266 66.954 89.2266 64.098 86.6426 60.29C84.1266 56.482 82.8686 52.028 82.8686 46.928C82.8686 39.176 85.5206 33.022 90.8246 28.466C96.1286 23.91 102.929 21.632 111.225 21.632C119.521 21.632 126.287 23.91 131.523 28.466C136.759 33.022 139.377 39.176 139.377 46.928C139.377 54.612 136.691 60.664 131.319 65.084C126.015 69.504 119.317 71.714 111.225 71.714ZM170.37 55.598C170.37 61.106 169.452 65.05 167.616 67.43C165.78 69.81 162.958 71 159.15 71C155.342 71 152.554 69.946 150.786 67.838C149.018 65.662 148.134 61.854 148.134 56.414L147.93 13.37C147.93 11.602 148.1 10.038 148.44 8.678C148.848 7.318 149.358 6.162 149.97 5.21C150.65 4.258 151.466 3.476 152.418 2.864C153.37 2.252 154.39 1.81 155.478 1.53799C156.634 1.26599 157.858 1.12999 159.15 1.12999C162.89 1.12999 165.678 1.87799 167.514 3.374C169.418 4.87 170.37 7.896 170.37 12.452V55.598ZM212.652 46.826C212.652 43.29 212.21 40.196 211.326 37.544C210.442 34.824 209.15 33.464 207.45 33.464C206.294 33.464 205.274 34.144 204.39 35.504C203.506 36.864 202.86 38.53 202.452 40.502C202.044 42.474 201.84 44.582 201.84 46.826C201.84 50.294 202.316 53.354 203.268 56.006C204.22 58.59 205.58 59.882 207.348 59.882C209.116 59.882 210.442 58.59 211.326 56.006C212.21 53.422 212.652 50.362 212.652 46.826ZM207.348 71.714C202.044 71.714 197.25 70.762 192.966 68.858C188.75 66.954 185.35 64.098 182.766 60.29C180.25 56.482 178.992 52.028 178.992 46.928C178.992 39.176 181.644 33.022 186.948 28.466C192.252 23.91 199.052 21.632 207.348 21.632C215.644 21.632 222.41 23.91 227.646 28.466C232.882 33.022 235.5 39.176 235.5 46.928C235.5 54.612 232.814 60.664 227.442 65.084C222.138 69.504 215.44 71.714 207.348 71.714ZM265.983 60.086C265.983 64.166 265.133 67.022 263.433 68.654C261.733 70.218 258.707 71 254.355 71C250.343 71 247.623 70.082 246.195 68.246C244.767 66.342 244.053 63.248 244.053 58.964V33.872C244.053 31.56 244.461 29.554 245.277 27.854C246.093 26.086 247.283 24.726 248.847 23.774C250.411 22.822 252.247 22.346 254.355 22.346C259.523 22.346 262.923 23.842 264.555 26.834C268.499 23.842 272.307 22.346 275.979 22.346C283.119 22.346 286.689 25.746 286.689 32.546C286.689 35.266 285.907 37.476 284.343 39.176C282.779 40.876 280.739 41.726 278.223 41.726C276.727 41.726 275.503 41.42 274.551 40.808C273.667 40.196 272.817 39.584 272.001 38.972C271.253 38.36 270.369 38.054 269.349 38.054C267.853 38.054 266.731 38.564 265.983 39.584V60.086ZM316.135 21.632C322.459 21.632 327.729 22.924 331.945 25.508C336.161 28.092 338.269 30.914 338.269 33.974C338.269 34.858 337.895 35.674 337.147 36.422C336.399 37.17 335.447 37.544 334.291 37.544C333.271 37.544 332.149 37.204 330.925 36.524C329.701 35.776 328.545 34.994 327.457 34.178C326.369 33.362 324.941 32.614 323.173 31.934C321.405 31.254 319.535 30.914 317.563 30.914C314.911 30.914 313.585 31.73 313.585 33.362C313.585 34.518 314.265 35.436 315.625 36.116C316.985 36.796 318.957 37.51 321.541 38.258C324.193 39.006 326.199 39.72 327.559 40.4C332.659 42.372 336.161 44.514 338.065 46.826C339.969 49.07 340.921 52.062 340.921 55.802C340.921 57.638 340.411 59.474 339.391 61.31C338.371 63.078 336.841 64.778 334.801 66.41C332.761 67.974 329.973 69.266 326.437 70.286C322.969 71.238 318.991 71.714 314.503 71.714C305.731 71.714 299.169 69.708 294.817 65.696C292.709 63.724 291.655 61.684 291.655 59.576C291.655 58.284 292.063 57.264 292.879 56.516C293.763 55.768 294.987 55.394 296.551 55.394C298.115 55.394 300.495 56.176 303.691 57.74C306.887 59.236 309.845 59.984 312.565 59.984C316.305 59.984 318.175 59.066 318.175 57.23C318.175 56.278 317.189 55.53 315.217 54.986C313.245 54.374 310.661 53.66 307.465 52.844C304.269 52.028 301.719 51.008 299.815 49.784C296.823 48.492 294.715 46.894 293.491 44.99C292.335 43.018 291.757 40.638 291.757 37.85C291.757 33.09 294.001 29.214 298.489 26.222C303.045 23.162 308.927 21.632 316.135 21.632Z" fill="url(#paint0_linear_1234_5453)"/>
</g>
<defs>
<linearGradient id="paint0_linear_1234_5453" x1="397.627" y1="52.0001" x2="367.398" y2="-68.3184" gradientUnits="userSpaceOnUse">
<stop stop-color="#0098FF"/>
<stop offset="0.744792" stop-color="#2B77AA"/>
<stop offset="0.776042" stop-color="#2671A5"/>
<stop offset="1" stop-color="#004B7D"/>
</linearGradient>
<clipPath id="clip0_1234_5453">
<rect width="345" height="72" rx="36" fill="white"/>
</clipPath>
</defs>
</svg>
